<?xml version="1.0" encoding="utf-8"?>
<!-- Generator: Adobe Illustrator 27.8.0, SVG Export Plug-In . SVG Version: 6.00 Build 0)  -->
<svg version="1.0" id="Capa_1" xmlns="http://www.w3.org/2000/svg" xmlns:xlink="http://www.w3.org/1999/xlink" x="0px" y="0px"
	 viewBox="0 0 81.11 58" style="enable-background:new 0 0 81.11 58;" xml:space="preserve">
<style type="text/css">
	.st0{fill:#336AEA;}
	.st1{fill:#FFFFFF;}
</style>
<path class="st0" d="M56.56,39c0,3.31-2.69,6-6,6h-20c-3.31,0-6-2.69-6-6V19c0-3.31,2.69-6,6-6h20c3.31,0,6,2.69,6,6V39z"/>
<path class="st1" d="M38.56,38.38c0,0.35-0.28,0.62-0.62,0.62h-6.75c-0.35,0-0.62-0.28-0.62-0.62v-1.75c0-0.35,0.28-0.62,0.62-0.62
	h6.75c0.35,0,0.62,0.28,0.62,0.62V38.38z M49.93,24c0.35,0,0.62-0.28,0.62-0.62v-3.75c0-0.35-0.28-0.62-0.62-0.62l-18.75,0
	c-0.35,0-0.62,0.28-0.62,0.62v13.75c0,0.35,0.28,0.62,0.62,0.62h6.75c0.35,0,0.62-0.28,0.62-0.62v-1.75c0-0.35,0.28-0.62,0.62-0.62
	h10.75c0.35,0,0.62-0.28,0.62-0.62v-3.75c0-0.35-0.28-0.62-0.62-0.62H39.18c-0.35,0-0.62-0.28-0.62-0.62v-0.75
	c0-0.35,0.28-0.62,0.62-0.62H49.93z"/>
</svg>
