<svg width="33" height="33" viewBox="0 0 33 33" fill="none" xmlns="http://www.w3.org/2000/svg">
<path d="M23.1933 4.12668L18.5533 6.44668C17.26 7.08668 15.7533 7.08668 14.46 6.44668L9.80667 4.11335C5.83334 2.12668 1.63334 6.42001 3.71334 10.3533L4.80667 12.4067C4.95334 12.6867 5.19334 12.9133 5.48667 13.0467L22.3533 20.6333C23.0467 20.94 23.86 20.66 24.2067 19.9933L29.2867 10.34C31.3533 6.42001 27.1667 2.12668 23.1933 4.12668Z" fill="#1775E4"/>
<path opacity="0.4" d="M21.3 22.2467L10.26 17.2733C9.01998 16.7133 7.76665 18.0467 8.40665 19.2467L12.46 26.94C14.18 30.2067 18.8466 30.2067 20.5666 26.94L21.9933 24.22C22.3667 23.4867 22.0466 22.5933 21.3 22.2467Z" fill="#1775E4"/>
</svg>
