<svg width="32" height="33" viewBox="0 0 32 33" fill="none" xmlns="http://www.w3.org/2000/svg">
<path d="M22.6933 28.8867L18.0533 26.5667C16.76 25.9267 15.2533 25.9267 13.96 26.5667L9.31998 28.8867C5.33332 30.8733 1.13332 26.5933 3.21332 22.66L4.30665 20.6067C4.45332 20.3267 4.69332 20.1 4.98665 19.9667L21.84 12.3667C22.5333 12.06 23.3467 12.34 23.6933 13.0067L28.7733 22.66C30.8533 26.5933 26.6667 30.8733 22.6933 28.8867Z" fill="#F9BA33"/>
<path opacity="0.4" d="M20.8 10.7533L9.76001 15.7267C8.52001 16.2867 7.26668 14.9533 7.90668 13.7533L11.96 6.05999C13.68 2.79332 18.3467 2.79332 20.0667 6.05999L21.4933 8.77999C21.8667 9.51332 21.5467 10.42 20.8 10.7533Z" fill="#F9BA33"/>
</svg>
