<svg width="32" height="32" viewBox="0 0 32 32" fill="none" xmlns="http://www.w3.org/2000/svg">
<path opacity="0.2" d="M24.0533 18.0666C23.4933 18.6133 23.1733 19.4 23.2533 20.24C23.3733 21.68 24.6933 22.7333 26.1333 22.7333H28.6667V24.32C28.6667 27.08 26.4133 29.3333 23.6533 29.3333H8.34668C5.58668 29.3333 3.33334 27.08 3.33334 24.32V15.3467C3.33334 12.5867 5.58668 10.3333 8.34668 10.3333H23.6533C26.4133 10.3333 28.6667 12.5867 28.6667 15.3467V17.2667H25.9733C25.2267 17.2667 24.5467 17.56 24.0533 18.0666Z" fill="white"/>
<path opacity="0.8" d="M19.8 5.26666V10.3333H8.34668C5.58668 10.3333 3.33334 12.5867 3.33334 15.3467V10.4533C3.33334 8.86668 4.30668 7.45329 5.78668 6.89329L16.3733 2.89329C18.0267 2.27996 19.8 3.49333 19.8 5.26666Z" fill="white"/>
<path opacity="0.8" d="M30.08 18.6266V21.3734C30.08 22.1067 29.4933 22.7066 28.7467 22.7333H26.1333C24.6933 22.7333 23.3733 21.68 23.2533 20.24C23.1733 19.4 23.4933 18.6133 24.0533 18.0666C24.5467 17.56 25.2267 17.2667 25.9733 17.2667H28.7467C29.4933 17.2933 30.08 17.8933 30.08 18.6266Z" fill="white"/>
<path d="M18.6667 17H9.33334C8.78668 17 8.33334 16.5467 8.33334 16C8.33334 15.4533 8.78668 15 9.33334 15H18.6667C19.2133 15 19.6667 15.4533 19.6667 16C19.6667 16.5467 19.2133 17 18.6667 17Z" fill="white"/>
</svg>
