<svg width="33" height="32" viewBox="0 0 33 32" fill="none" xmlns="http://www.w3.org/2000/svg">
<path opacity="0.4" d="M17.6867 7.84001H7.31333C5.03333 7.84001 3.16669 9.70666 3.16669 11.9867V27.1333C3.16669 29.0667 4.55335 29.8933 6.24668 28.9467L11.4867 26.0267C12.0467 25.72 12.9534 25.72 13.5 26.0267L18.74 28.9467C20.4333 29.8933 21.82 29.0667 21.82 27.1333V11.9867C21.8333 9.70666 19.9667 7.84001 17.6867 7.84001Z" fill="#3BBB6E"/>
<path d="M29.8334 6.81332V21.96C29.8334 23.8933 28.4467 24.7067 26.7534 23.7733L21.8334 21.0267V11.9867C21.8334 9.70666 19.9667 7.84001 17.6867 7.84001H11.1667V6.81332C11.1667 4.53332 13.0333 2.66667 15.3133 2.66667H25.6867C27.9667 2.66667 29.8334 4.53332 29.8334 6.81332Z" fill="#3BBB6E"/>
</svg>
